<mxfile host="app.diagrams.net" modified="2024-05-23T15:40:38.834Z" agent="Mozilla/5.0 (Macintosh; Intel Mac OS X 10_15_7) AppleWebKit/537.36 (KHTML, like Gecko) Chrome/124.0.0.0 Safari/537.36" etag="mMgePM9NTBjkrTtYqj21" version="24.4.6" type="github">
  <diagram name="Page-1" id="AGcUlClqXVcXV1Il2NJH">
    <mxGraphModel dx="1194" dy="756" grid="1" gridSize="10" guides="1" tooltips="1" connect="1" arrows="1" fold="1" page="1" pageScale="1" pageWidth="850" pageHeight="1100" math="0" shadow="0">
      <root>
        <mxCell id="0" />
        <mxCell id="1" parent="0" />
        <mxCell id="VTZHkho3guksOpkpeBhN-16" style="edgeStyle=orthogonalEdgeStyle;rounded=0;orthogonalLoop=1;jettySize=auto;html=1;exitX=0.5;exitY=0;exitDx=0;exitDy=0;entryX=0.5;entryY=1;entryDx=0;entryDy=0;" edge="1" parent="1" source="VTZHkho3guksOpkpeBhN-15" target="VTZHkho3guksOpkpeBhN-1">
          <mxGeometry relative="1" as="geometry" />
        </mxCell>
        <mxCell id="VTZHkho3guksOpkpeBhN-9" style="edgeStyle=orthogonalEdgeStyle;rounded=0;orthogonalLoop=1;jettySize=auto;html=1;exitX=0.5;exitY=0;exitDx=0;exitDy=0;entryX=0.5;entryY=1;entryDx=0;entryDy=0;" edge="1" parent="1" source="VTZHkho3guksOpkpeBhN-8" target="VTZHkho3guksOpkpeBhN-7">
          <mxGeometry relative="1" as="geometry" />
        </mxCell>
        <mxCell id="VTZHkho3guksOpkpeBhN-10" value="Upload" style="edgeLabel;html=1;align=center;verticalAlign=middle;resizable=0;points=[];" vertex="1" connectable="0" parent="VTZHkho3guksOpkpeBhN-9">
          <mxGeometry x="-0.0206" y="3" relative="1" as="geometry">
            <mxPoint y="78" as="offset" />
          </mxGeometry>
        </mxCell>
        <mxCell id="VTZHkho3guksOpkpeBhN-17" style="edgeStyle=orthogonalEdgeStyle;rounded=0;orthogonalLoop=1;jettySize=auto;html=1;exitX=0.5;exitY=0;exitDx=0;exitDy=0;entryX=0.5;entryY=1;entryDx=0;entryDy=0;" edge="1" parent="1" source="VTZHkho3guksOpkpeBhN-1" target="VTZHkho3guksOpkpeBhN-5">
          <mxGeometry relative="1" as="geometry" />
        </mxCell>
        <mxCell id="VTZHkho3guksOpkpeBhN-18" value="Query" style="edgeLabel;html=1;align=center;verticalAlign=middle;resizable=0;points=[];" vertex="1" connectable="0" parent="VTZHkho3guksOpkpeBhN-17">
          <mxGeometry x="0.1" y="3" relative="1" as="geometry">
            <mxPoint x="3" as="offset" />
          </mxGeometry>
        </mxCell>
        <mxCell id="VTZHkho3guksOpkpeBhN-20" style="edgeStyle=orthogonalEdgeStyle;rounded=0;orthogonalLoop=1;jettySize=auto;html=1;exitX=1;exitY=0.5;exitDx=0;exitDy=0;entryX=0;entryY=0.5;entryDx=0;entryDy=0;" edge="1" parent="1" source="VTZHkho3guksOpkpeBhN-1" target="VTZHkho3guksOpkpeBhN-3">
          <mxGeometry relative="1" as="geometry" />
        </mxCell>
        <mxCell id="VTZHkho3guksOpkpeBhN-1" value="Backend" style="rounded=0;whiteSpace=wrap;html=1;" vertex="1" parent="1">
          <mxGeometry x="360" y="360" width="120" height="40" as="geometry" />
        </mxCell>
        <mxCell id="VTZHkho3guksOpkpeBhN-21" style="edgeStyle=orthogonalEdgeStyle;rounded=0;orthogonalLoop=1;jettySize=auto;html=1;exitX=0.5;exitY=1;exitDx=0;exitDy=0;" edge="1" parent="1" source="VTZHkho3guksOpkpeBhN-3">
          <mxGeometry relative="1" as="geometry">
            <mxPoint x="660" y="640" as="targetPoint" />
          </mxGeometry>
        </mxCell>
        <mxCell id="VTZHkho3guksOpkpeBhN-3" value="Ollama LLM" style="rounded=0;whiteSpace=wrap;html=1;" vertex="1" parent="1">
          <mxGeometry x="600" y="200" width="120" height="40" as="geometry" />
        </mxCell>
        <mxCell id="VTZHkho3guksOpkpeBhN-19" style="edgeStyle=orthogonalEdgeStyle;rounded=0;orthogonalLoop=1;jettySize=auto;html=1;exitX=1;exitY=0.5;exitDx=0;exitDy=0;entryX=0;entryY=0.5;entryDx=0;entryDy=0;" edge="1" parent="1" source="VTZHkho3guksOpkpeBhN-5" target="VTZHkho3guksOpkpeBhN-3">
          <mxGeometry relative="1" as="geometry" />
        </mxCell>
        <mxCell id="VTZHkho3guksOpkpeBhN-5" value="Chroma DB" style="rounded=0;whiteSpace=wrap;html=1;" vertex="1" parent="1">
          <mxGeometry x="360" y="200" width="120" height="40" as="geometry" />
        </mxCell>
        <mxCell id="VTZHkho3guksOpkpeBhN-4" value="UI" style="rounded=0;whiteSpace=wrap;html=1;" vertex="1" parent="1">
          <mxGeometry y="520" width="840" height="40" as="geometry" />
        </mxCell>
        <mxCell id="VTZHkho3guksOpkpeBhN-13" style="edgeStyle=orthogonalEdgeStyle;rounded=0;orthogonalLoop=1;jettySize=auto;html=1;exitX=1;exitY=0.5;exitDx=0;exitDy=0;entryX=0;entryY=0.5;entryDx=0;entryDy=0;" edge="1" parent="1" source="VTZHkho3guksOpkpeBhN-6" target="VTZHkho3guksOpkpeBhN-5">
          <mxGeometry relative="1" as="geometry" />
        </mxCell>
        <mxCell id="VTZHkho3guksOpkpeBhN-14" value="Write" style="edgeLabel;html=1;align=center;verticalAlign=middle;resizable=0;points=[];" vertex="1" connectable="0" parent="VTZHkho3guksOpkpeBhN-13">
          <mxGeometry x="-0.1167" y="-2" relative="1" as="geometry">
            <mxPoint as="offset" />
          </mxGeometry>
        </mxCell>
        <mxCell id="VTZHkho3guksOpkpeBhN-6" value="Ollama Embedding" style="rounded=0;whiteSpace=wrap;html=1;" vertex="1" parent="1">
          <mxGeometry x="120" y="200" width="120" height="40" as="geometry" />
        </mxCell>
        <mxCell id="VTZHkho3guksOpkpeBhN-12" style="edgeStyle=orthogonalEdgeStyle;rounded=0;orthogonalLoop=1;jettySize=auto;html=1;exitX=0.5;exitY=0;exitDx=0;exitDy=0;entryX=0.5;entryY=1;entryDx=0;entryDy=0;" edge="1" parent="1" source="VTZHkho3guksOpkpeBhN-7" target="VTZHkho3guksOpkpeBhN-6">
          <mxGeometry relative="1" as="geometry" />
        </mxCell>
        <mxCell id="VTZHkho3guksOpkpeBhN-7" value="Unstructured Documentation Parser" style="rounded=0;whiteSpace=wrap;html=1;" vertex="1" parent="1">
          <mxGeometry x="120" y="360" width="120" height="40" as="geometry" />
        </mxCell>
        <mxCell id="VTZHkho3guksOpkpeBhN-8" value="pdf, txt, xlsx..." style="rounded=1;whiteSpace=wrap;html=1;" vertex="1" parent="1">
          <mxGeometry x="120" y="640" width="120" height="40" as="geometry" />
        </mxCell>
        <mxCell id="VTZHkho3guksOpkpeBhN-15" value="Query" style="rounded=1;whiteSpace=wrap;html=1;" vertex="1" parent="1">
          <mxGeometry x="360" y="640" width="120" height="40" as="geometry" />
        </mxCell>
        <mxCell id="VTZHkho3guksOpkpeBhN-22" value="Response" style="rounded=1;whiteSpace=wrap;html=1;" vertex="1" parent="1">
          <mxGeometry x="600" y="640" width="120" height="40" as="geometry" />
        </mxCell>
      </root>
    </mxGraphModel>
  </diagram>
</mxfile>
